<?xml version="1.0" standalone="no"?>
<!DOCTYPE svg PUBLIC "-//W3C//DTD SVG 20010904//EN"
 "http://www.w3.org/TR/2001/REC-SVG-20010904/DTD/svg10.dtd">
<svg version="1.0" xmlns="http://www.w3.org/2000/svg"
 width="1800.000000pt" height="2700.000000pt" viewBox="0 0 1800.000000 2700.000000"
 preserveAspectRatio="xMidYMid meet">
<g transform="translate(0.000000,2700.000000) scale(0.100000,-0.100000)"
fill="#000000" stroke="none">
<path d="M4720 17241 c-159 -23 -351 -137 -468 -277 -40 -49 -122 -175 -122
-189 0 -2 -26 -47 -58 -102 -32 -54 -77 -132 -99 -173 -137 -255 -164 -304
-220 -398 -24 -41 -43 -76 -43 -78 0 -2 -12 -23 -27 -47 -15 -23 -39 -64 -54
-92 -52 -101 -132 -250 -139 -260 -4 -5 -29 -50 -55 -100 -26 -49 -82 -148
-124 -220 -43 -71 -100 -170 -126 -220 -26 -49 -54 -97 -61 -106 -8 -8 -14
-18 -14 -21 0 -3 -24 -48 -54 -100 -29 -52 -79 -144 -111 -204 -32 -60 -66
-121 -77 -136 -102 -146 -267 -524 -367 -843 -10 -32 -43 -161 -66 -260 -27
-117 -44 -253 -56 -447 l-12 -197 12 -173 c20 -294 109 -723 178 -858 7 -14
13 -32 13 -41 0 -8 7 -24 15 -35 8 -10 15 -25 15 -33 1 -38 206 -424 298 -561
223 -329 678 -775 903 -884 8 -3 28 -15 44 -25 146 -94 433 -235 578 -285 43
-15 88 -31 100 -35 24 -10 102 -33 187 -55 126 -34 196 -47 448 -87 241 -37
675 -22 906 31 313 74 438 110 560 164 32 14 65 26 73 26 8 0 27 6 41 14 15 7
65 32 112 54 96 47 189 97 261 142 27 16 51 30 53 30 12 0 238 159 317 224
215 173 516 513 649 732 23 38 57 92 74 119 46 71 146 280 198 415 67 174 68
175 105 320 18 74 41 158 48 186 8 28 15 63 15 78 0 16 6 54 14 85 8 31 17
108 21 171 3 63 11 149 16 190 l11 75 32 65 33 65 55 45 56 45 56 19 56 19 74
0 74 -1 54 -24 c154 -71 211 -184 223 -438 6 -132 26 -285 50 -385 8 -33 24
-100 36 -149 26 -110 93 -316 118 -364 5 -9 24 -53 42 -97 45 -107 107 -228
161 -311 52 -80 98 -152 113 -176 145 -237 426 -534 700 -739 108 -82 232
-169 239 -169 3 0 31 -17 63 -38 32 -21 74 -47 93 -56 161 -82 217 -109 300
-144 52 -22 115 -47 140 -55 25 -8 56 -20 70 -25 21 -9 129 -38 301 -83 121
-31 373 -67 549 -79 l135 -8 174 9 c95 4 199 13 230 18 31 5 99 17 151 26 315
52 776 223 1015 376 17 10 40 23 53 29 42 18 233 150 308 213 28 23 82 67 120
98 154 126 417 424 528 599 26 41 68 107 93 145 69 106 217 399 253 500 18 50
38 106 45 125 16 42 38 123 90 328 8 31 21 98 29 147 9 50 21 124 28 165 l13
75 -1 275 0 275 -17 115 c-9 63 -26 158 -37 210 -12 52 -25 118 -30 145 -6 28
-14 61 -19 75 -4 14 -16 50 -25 80 -68 232 -165 459 -286 675 -66 118 -79 141
-114 205 -37 70 -50 93 -137 246 -31 55 -72 128 -90 164 -18 36 -43 82 -56
102 -33 53 -173 299 -173 303 0 2 -14 27 -30 55 -34 58 -96 170 -118 215 -8
17 -24 43 -36 59 -11 17 -27 44 -36 60 -32 62 -94 172 -117 208 -13 21 -23 40
-23 43 0 3 -20 40 -44 83 -24 42 -60 109 -81 147 -21 39 -48 86 -59 105 -12
19 -33 57 -46 83 -14 27 -30 56 -35 65 -6 10 -28 49 -49 87 -197 353 -244 414
-401 519 l-80 53 -90 33 -90 33 -155 1 -155 1 -60 -19 c-33 -11 -64 -22 -70
-26 -5 -4 -21 -11 -34 -15 -35 -11 -160 -98 -210 -147 -118 -116 -186 -246
-216 -418 -26 -151 -22 -176 35 -205 l35 -19 95 0 95 -1 41 22 42 22 0 98 0
98 28 60 28 60 53 51 c30 29 79 64 111 79 l57 27 105 1 105 1 50 -19 c91 -34
245 -158 245 -198 0 -4 11 -25 25 -47 14 -22 42 -71 62 -108 19 -37 47 -87 61
-112 13 -25 40 -74 60 -110 19 -36 49 -90 67 -120 17 -30 49 -86 71 -125 21
-38 43 -78 49 -87 5 -9 20 -36 33 -59 13 -23 43 -72 66 -108 24 -36 74 -118
112 -181 37 -63 81 -133 96 -154 31 -43 36 -74 14 -82 l-15 -6 -98 64 c-54 36
-120 78 -148 94 -27 16 -59 35 -70 42 -28 17 -178 88 -260 123 -64 28 -354
117 -455 139 -231 53 -396 75 -625 86 l-140 7 -160 -17 c-247 -26 -401 -52
-545 -92 -30 -9 -77 -22 -105 -29 -143 -40 -198 -58 -280 -95 -418 -188 -547
-265 -831 -492 -136 -110 -315 -294 -483 -498 -49 -59 -161 -222 -161 -234 0
-3 -13 -24 -29 -48 -47 -70 -112 -197 -152 -293 l-37 -90 -16 -3 c-9 -2 -45
10 -81 27 -36 17 -72 31 -81 31 -8 0 -23 4 -33 10 -10 5 -65 19 -122 31 l-104
23 -195 0 -195 0 -80 -18 c-96 -22 -245 -71 -298 -97 l-37 -20 -20 11 c-11 6
-20 16 -20 23 0 56 -147 344 -268 527 -75 112 -320 396 -411 474 -13 12 -40
37 -60 56 -37 35 -79 69 -236 192 -84 66 -210 152 -248 168 -12 6 -44 24 -72
40 -111 67 -202 109 -465 216 -37 15 -187 61 -280 87 -152 41 -311 69 -525 93
l-150 17 -180 -6 c-99 -3 -207 -10 -240 -16 -33 -6 -112 -18 -175 -26 -145
-20 -256 -43 -298 -61 -18 -8 -40 -14 -50 -14 -15 0 -97 -27 -277 -90 -151
-53 -396 -187 -558 -306 -27 -19 -56 -34 -65 -32 l-17 4 2 26 c1 15 22 58 46
95 24 37 54 88 67 113 12 25 49 89 81 143 33 54 59 100 59 102 0 2 24 44 54
93 29 48 75 129 101 178 26 49 63 114 81 145 19 31 34 59 34 62 0 2 20 40 43
83 24 44 61 111 82 149 91 168 184 257 315 300 l55 18 85 1 85 0 50 -19 c175
-66 275 -209 275 -393 l0 -61 48 -23 47 -22 90 0 90 0 33 17 32 18 0 52 c-3
346 -172 589 -504 726 l-78 33 -127 3 c-69 2 -151 0 -181 -4z m7975 -1642
c268 -23 623 -105 757 -175 14 -8 31 -14 37 -14 25 0 323 -146 428 -210 335
-202 706 -563 879 -853 16 -27 41 -70 57 -95 48 -82 177 -352 192 -402 4 -14
13 -38 20 -55 36 -87 47 -119 74 -215 64 -235 85 -355 102 -584 l13 -169 -13
-191 c-17 -264 -54 -478 -118 -681 -51 -163 -166 -422 -246 -555 -66 -110
-172 -266 -219 -321 -29 -35 -69 -84 -90 -109 -64 -79 -178 -192 -306 -303
-193 -167 -524 -365 -767 -460 -198 -78 -474 -149 -695 -179 l-95 -13 -245 1
-245 1 -110 16 c-152 24 -237 41 -330 67 -44 12 -93 26 -110 31 -16 4 -75 24
-130 44 -55 20 -111 40 -125 44 -23 8 -156 68 -240 109 -298 145 -699 482
-920 772 -19 25 -37 47 -40 50 -22 22 -169 248 -209 324 -106 199 -233 550
-268 736 -36 199 -51 304 -58 404 -26 415 -244 679 -608 736 l-68 11 -87 -11
-87 -11 -91 -35 -91 -36 -74 -56 c-197 -150 -272 -311 -294 -637 -15 -219 -84
-556 -141 -693 -8 -18 -14 -39 -14 -46 0 -13 -91 -230 -133 -316 -54 -110
-181 -306 -276 -424 -31 -38 -67 -83 -80 -100 -41 -52 -212 -226 -286 -291
-98 -86 -353 -275 -370 -275 -2 0 -21 -11 -42 -25 -42 -29 -287 -150 -408
-202 -141 -61 -444 -139 -675 -175 l-85 -13 -255 0 -255 0 -95 13 c-269 38
-792 199 -885 272 -5 5 -55 32 -110 61 -55 28 -131 73 -168 98 -38 25 -76 51
-85 56 -134 82 -420 338 -513 460 -13 17 -47 57 -77 90 -47 53 -195 262 -245
347 -93 159 -267 580 -267 647 0 10 -6 37 -14 62 -19 60 -43 173 -63 299 l-17
105 0 270 0 270 22 139 c13 76 25 143 28 148 3 4 9 29 13 56 22 128 99 368
167 519 8 17 14 34 14 37 0 8 82 171 114 226 14 25 29 52 33 60 4 8 26 43 50
78 24 35 43 65 43 68 0 8 116 160 174 229 120 142 234 249 403 378 34 26 68
53 75 60 17 18 107 80 144 101 16 9 43 25 59 36 17 11 37 23 45 27 8 4 47 26
85 48 145 86 409 188 602 235 181 43 211 50 318 67 l110 18 315 -1 315 0 110
-22 c170 -34 359 -83 445 -117 19 -7 76 -28 125 -46 175 -64 520 -259 686
-388 125 -98 387 -363 475 -481 85 -115 209 -298 239 -354 12 -23 32 -58 43
-78 70 -124 153 -359 187 -530 l5 -28 15 0 c8 0 58 31 112 68 101 71 186 120
238 139 17 7 55 21 85 33 30 11 96 30 145 40 l90 20 132 0 133 0 82 -16 c210
-39 456 -156 552 -263 11 -12 27 -21 36 -21 l16 0 18 78 c27 118 73 255 122
360 24 51 44 95 44 97 0 20 156 272 261 420 158 225 532 568 748 687 20 10 56
31 81 44 76 43 237 124 244 124 6 0 93 38 137 60 19 10 207 74 264 90 276 79
679 115 980 89z"/>
<path d="M5190 15094 c-128 -21 -260 -51 -431 -99 -54 -15 -217 -89 -355 -161
-273 -142 -581 -408 -743 -643 -139 -202 -150 -221 -227 -381 -80 -168 -99
-212 -114 -270 -5 -19 -18 -66 -30 -105 -32 -109 -50 -199 -71 -345 l-18 -135
-1 -170 0 -170 19 -115 c50 -298 72 -379 159 -580 45 -106 114 -246 145 -295
76 -123 148 -225 209 -296 40 -47 89 -104 108 -126 85 -99 341 -295 511 -393
404 -231 907 -342 1355 -300 717 68 1311 426 1718 1034 83 124 80 120 127 216
126 258 179 439 224 754 l17 119 -1 197 0 198 -16 103 c-113 716 -478 1267
-1100 1657 -11 6 -27 15 -35 19 -8 4 -35 19 -60 33 -50 29 -331 150 -348 150
-6 0 -26 6 -44 14 -18 8 -60 21 -93 29 -33 9 -79 20 -101 26 -23 6 -108 20
-189 31 l-148 20 -191 -1 -191 -1 -85 -14z m555 -329 c181 -30 269 -54 481
-129 107 -38 344 -171 429 -240 296 -242 456 -434 596 -716 240 -482 272
-1046 89 -1565 -35 -100 -109 -258 -152 -323 -15 -24 -28 -45 -28 -48 0 -4
-76 -112 -97 -139 -146 -181 -229 -263 -383 -380 -205 -154 -439 -268 -670
-325 -180 -44 -215 -50 -361 -60 l-154 -10 -130 11 c-394 32 -676 138 -1040
389 -126 87 -465 446 -465 493 0 3 -18 31 -39 63 -160 239 -251 543 -286 950
l-7 81 17 149 c43 389 139 654 351 975 l64 97 114 119 c235 245 519 433 761
503 17 5 57 18 90 30 74 26 164 46 315 70 l115 18 150 1 150 1 90 -15z"/>
<path d="M12155 15093 c-233 -44 -355 -70 -425 -93 -207 -69 -558 -264 -727
-406 -114 -96 -139 -122 -337 -344 -19 -21 -62 -86 -184 -275 -76 -120 -207
-442 -246 -605 -137 -583 -73 -1122 198 -1655 185 -363 541 -715 959 -948 66
-37 296 -134 359 -152 29 -8 85 -23 123 -34 116 -33 261 -58 430 -76 l161 -17
184 17 c216 20 322 40 539 105 141 41 312 121 468 218 337 210 656 549 827
882 21 41 42 80 46 85 35 49 142 366 173 510 59 275 71 655 27 865 -32 152
-42 199 -55 240 -44 151 -59 196 -67 205 -4 5 -8 15 -8 21 0 7 -24 66 -53 131
-45 100 -75 156 -152 282 -136 221 -378 483 -570 617 -90 62 -167 114 -170
114 -2 0 -36 19 -77 43 -143 82 -261 132 -428 180 -30 9 -77 23 -105 31 -59
17 -164 41 -255 57 l-65 12 -245 3 -245 3 -80 -16z m584 -333 c672 -110 1179
-480 1475 -1076 44 -88 86 -183 86 -193 0 -6 6 -25 14 -43 30 -70 63 -204 92
-373 l17 -100 0 -170 0 -170 -17 -115 c-25 -174 -82 -377 -140 -505 -53 -115
-61 -131 -118 -227 -104 -176 -274 -378 -404 -479 -17 -13 -62 -49 -100 -80
-284 -228 -624 -358 -1030 -390 l-155 -12 -152 12 c-163 13 -348 50 -447 89
-14 5 -50 18 -80 27 -51 17 -132 57 -275 135 -686 375 -1080 1141 -991 1925 8
66 19 140 24 165 6 25 18 79 28 120 51 231 216 567 356 729 7 8 23 28 35 44
221 295 635 555 1028 646 72 16 171 36 220 44 l90 15 160 1 160 1 124 -20z"/>
</g>
</svg>
